<?xml version="1.0" ?><svg height="96px" version="1.1" viewBox="0 0 96 96" width="96px" xmlns="http://www.w3.org/2000/svg" xmlns:xlink="http://www.w3.org/1999/xlink"><title/><desc/><defs/><g fill="none" fill-rule="evenodd" id="Sushi-Icons-Outlines" stroke="none" stroke-width="1"><g id="Hipster"><g fill="#3F2C3D" id="body" transform="translate(25.000000, 12.000000)"><path d="M45,65 C45.552,65 46,64.552 46,64 L46,6 C46,5.448 45.552,5 45,5 C44.448,5 44,5.448 44,6 L44,63 L6,63 C5.448,63 5,63.448 5,64 C5,64.552 5.448,65 6,65 L45,65 Z" id="Fill-147"/><path d="M1,0 C0.448,0 0,0.448 0,1 L0,64 C0,64.552 0.448,65 1,65 C1.552,65 2,64.552 2,64 L2,63 L2,2 L16,2 C16.552,2 17,1.552 17,1 C17,0.448 16.552,0 16,0 L1,0 Z" id="Fill-149"/><path d="M45,0 L30,0 C29.448,0 29,0.448 29,1 C29,1.552 29.448,2 30,2 L44,2 L45,2 C45.552,2 46,1.552 46,1 C46,0.448 45.552,0 45,0" id="Fill-151"/></g><g id="hands" stroke="#3F2C3D" stroke-linecap="round" stroke-width="2" transform="translate(16.000000, 43.000000)"><g id="left-hand"><path d="M10,0 L1.072,4.464 C0.514,4.743 0.345,5.459 0.719,5.959 L5,13" id="Stroke-153"/><path d="M8,17 C8,17.552 8.448,18 9,18 C9.552,18 10,17.552 10,17 C10,16.448 9.552,16 9,16 C8.448,16 8,16.448 8,17 L8,17 Z" id="Stroke-155"/></g><g id="right-hand" transform="translate(54.000000, 0.000000)"><path d="M0,0 L8.928,4.464 C9.486,4.743 9.655,5.459 9.281,5.959 L5,13" id="Stroke-157"/><path d="M0,17 C0,17.552 0.448,18 1,18 C1.552,18 2,17.552 2,17 C2,16.448 1.552,16 1,16 C0.448,16 0,16.448 0,17 L0,17 Z" id="Stroke-159"/></g></g><g id="legs" stroke="#3F2C3D" stroke-linecap="round" stroke-width="2" transform="translate(22.000000, 81.000000)"><g id="right-leg" transform="translate(44.000000, 0.000000)"><path d="M4,0 L4,6" id="Stroke-161"/><path d="M0,6 L4,6" id="Stroke-163"/></g><g id="left-leg"><path d="M4,0 L4,6" id="Stroke-165"/><path d="M0,6 L4,6" id="Stroke-167"/></g></g><g id="head" transform="translate(30.000000, 8.000000)"><g id="glasses" transform="translate(0.000000, 14.000000)"><path d="M15,0 L1,0 C0.448,0 0,0.448 0,1 L0,3.209 C0,7.736 2.416,11.689 6.934,11.982 C11.885,12.302 16,8.382 16,3.5 L16,1 C16,0.448 15.552,0 15,0" fill="#3F2C3D" id="Fill-169"/><path d="M35,0 L21,0 C20.448,0 20,0.448 20,1 L20,3.209 C20,7.736 23.416,11.689 27.934,11.982 C32.885,12.302 36,8.382 36,3.5 L36,1 C36,0.448 35.552,0 35,0" fill="#3F2C3D" id="Fill-171"/><path d="M15,1 L21,1" id="Stroke-173" stroke="#3F2C3D" stroke-width="2"/></g><g id="hair" stroke="#3F2C3D" stroke-linecap="round" stroke-width="2" transform="translate(16.000000, 0.000000)"><path d="M0,0 L0,8" id="Stroke-175"/><path d="M4,0 L4,8" id="Stroke-177"/></g><g fill="#3F2C3D" id="beard" transform="translate(1.000000, 32.000000)"><path d="M4,3.5 C4,3.776 3.776,4 3.5,4 C3.224,4 3,3.776 3,3.5 C3,3.224 3.224,3 3.5,3 C3.776,3 4,3.224 4,3.5" id="Fill-179"/><path d="M7,3.5 C7,3.776 6.776,4 6.5,4 C6.224,4 6,3.776 6,3.5 C6,3.224 6.224,3 6.5,3 C6.776,3 7,3.224 7,3.5" id="Fill-181"/><path d="M10,3.5 C10,3.776 9.776,4 9.5,4 C9.224,4 9,3.776 9,3.5 C9,3.224 9.224,3 9.5,3 C9.776,3 10,3.224 10,3.5" id="Fill-183"/><path d="M1,3.5 C1,3.776 0.776,4 0.5,4 C0.224,4 0,3.776 0,3.5 C0,3.224 0.224,3 0.5,3 C0.776,3 1,3.224 1,3.5" id="Fill-185"/><path d="M28,3.5 C28,3.776 27.776,4 27.5,4 C27.224,4 27,3.776 27,3.5 C27,3.224 27.224,3 27.5,3 C27.776,3 28,3.224 28,3.5" id="Fill-187"/><path d="M31,3.5 C31,3.776 30.776,4 30.5,4 C30.224,4 30,3.776 30,3.5 C30,3.224 30.224,3 30.5,3 C30.776,3 31,3.224 31,3.5" id="Fill-189"/><path d="M34,3.5 C34,3.776 33.776,4 33.5,4 C33.224,4 33,3.776 33,3.5 C33,3.224 33.224,3 33.5,3 C33.776,3 34,3.224 34,3.5" id="Fill-191"/><path d="M25,3.5 C25,3.776 24.776,4 24.5,4 C24.224,4 24,3.776 24,3.5 C24,3.224 24.224,3 24.5,3 C24.776,3 25,3.224 25,3.5" id="Fill-193"/><path d="M28,0.5 C28,0.776 27.776,1 27.5,1 C27.224,1 27,0.776 27,0.5 C27,0.224 27.224,0 27.5,0 C27.776,0 28,0.224 28,0.5" id="Fill-195"/><path d="M31,0.5 C31,0.776 30.776,1 30.5,1 C30.224,1 30,0.776 30,0.5 C30,0.224 30.224,0 30.5,0 C30.776,0 31,0.224 31,0.5" id="Fill-197"/><path d="M34,0.5 C34,0.776 33.776,1 33.5,1 C33.224,1 33,0.776 33,0.5 C33,0.224 33.224,0 33.5,0 C33.776,0 34,0.224 34,0.5" id="Fill-199"/><path d="M25,0.5 C25,0.776 24.776,1 24.5,1 C24.224,1 24,0.776 24,0.5 C24,0.224 24.224,0 24.5,0 C24.776,0 25,0.224 25,0.5" id="Fill-201"/><path d="M4,0.5 C4,0.776 3.776,1 3.5,1 C3.224,1 3,0.776 3,0.5 C3,0.224 3.224,0 3.5,0 C3.776,0 4,0.224 4,0.5" id="Fill-203"/><path d="M7,0.5 C7,0.776 6.776,1 6.5,1 C6.224,1 6,0.776 6,0.5 C6,0.224 6.224,0 6.5,0 C6.776,0 7,0.224 7,0.5" id="Fill-205"/><path d="M10,0.5 C10,0.776 9.776,1 9.5,1 C9.224,1 9,0.776 9,0.5 C9,0.224 9.224,0 9.5,0 C9.776,0 10,0.224 10,0.5" id="Fill-207"/><path d="M1,0.5 C1,0.776 0.776,1 0.5,1 C0.224,1 0,0.776 0,0.5 C0,0.224 0.224,0 0.5,0 C0.776,0 1,0.224 1,0.5" id="Fill-209"/><path d="M10,6.5 C10,6.776 9.776,7 9.5,7 C9.224,7 9,6.776 9,6.5 C9,6.224 9.224,6 9.5,6 C9.776,6 10,6.224 10,6.5" id="Fill-211"/><path d="M13,6.5 C13,6.776 12.776,7 12.5,7 C12.224,7 12,6.776 12,6.5 C12,6.224 12.224,6 12.5,6 C12.776,6 13,6.224 13,6.5" id="Fill-213"/><path d="M1,6.5 C1,6.776 0.776,7 0.5,7 C0.224,7 0,6.776 0,6.5 C0,6.224 0.224,6 0.5,6 C0.776,6 1,6.224 1,6.5" id="Fill-215"/><path d="M4,6.5 C4,6.776 3.776,7 3.5,7 C3.224,7 3,6.776 3,6.5 C3,6.224 3.224,6 3.5,6 C3.776,6 4,6.224 4,6.5" id="Fill-217"/><path d="M7,6.5 C7,6.776 6.776,7 6.5,7 C6.224,7 6,6.776 6,6.5 C6,6.224 6.224,6 6.5,6 C6.776,6 7,6.224 7,6.5" id="Fill-219"/><path d="M10,9.5 C10,9.776 9.776,10 9.5,10 C9.224,10 9,9.776 9,9.5 C9,9.224 9.224,9 9.5,9 C9.776,9 10,9.224 10,9.5" id="Fill-221"/><path d="M13,9.5 C13,9.776 12.776,10 12.5,10 C12.224,10 12,9.776 12,9.5 C12,9.224 12.224,9 12.5,9 C12.776,9 13,9.224 13,9.5" id="Fill-223"/><path d="M4,9.5 C4,9.776 3.776,10 3.5,10 C3.224,10 3,9.776 3,9.5 C3,9.224 3.224,9 3.5,9 C3.776,9 4,9.224 4,9.5" id="Fill-225"/><path d="M7,9.5 C7,9.776 6.776,10 6.5,10 C6.224,10 6,9.776 6,9.5 C6,9.224 6.224,9 6.5,9 C6.776,9 7,9.224 7,9.5" id="Fill-227"/><path d="M25,9.5 C25,9.776 24.776,10 24.5,10 C24.224,10 24,9.776 24,9.5 C24,9.224 24.224,9 24.5,9 C24.776,9 25,9.224 25,9.5" id="Fill-229"/><path d="M28,9.5 C28,9.776 27.776,10 27.5,10 C27.224,10 27,9.776 27,9.5 C27,9.224 27.224,9 27.5,9 C27.776,9 28,9.224 28,9.5" id="Fill-231"/><path d="M16,9.5 C16,9.776 15.776,10 15.5,10 C15.224,10 15,9.776 15,9.5 C15,9.224 15.224,9 15.5,9 C15.776,9 16,9.224 16,9.5" id="Fill-233"/><path d="M19,9.5 C19,9.776 18.776,10 18.5,10 C18.224,10 18,9.776 18,9.5 C18,9.224 18.224,9 18.5,9 C18.776,9 19,9.224 19,9.5" id="Fill-235"/><path d="M22,9.5 C22,9.776 21.776,10 21.5,10 C21.224,10 21,9.776 21,9.5 C21,9.224 21.224,9 21.5,9 C21.776,9 22,9.224 22,9.5" id="Fill-237"/><path d="M31,9.5 C31,9.776 30.776,10 30.5,10 C30.224,10 30,9.776 30,9.5 C30,9.224 30.224,9 30.5,9 C30.776,9 31,9.224 31,9.5" id="Fill-239"/><path d="M25,6.5 C25,6.776 24.776,7 24.5,7 C24.224,7 24,6.776 24,6.5 C24,6.224 24.224,6 24.5,6 C24.776,6 25,6.224 25,6.5" id="Fill-241"/><path d="M28,6.5 C28,6.776 27.776,7 27.5,7 C27.224,7 27,6.776 27,6.5 C27,6.224 27.224,6 27.5,6 C27.776,6 28,6.224 28,6.5" id="Fill-243"/><path d="M16,6.5 C16,6.776 15.776,7 15.5,7 C15.224,7 15,6.776 15,6.5 C15,6.224 15.224,6 15.5,6 C15.776,6 16,6.224 16,6.5" id="Fill-245"/><path d="M19,6.5 C19,6.776 18.776,7 18.5,7 C18.224,7 18,6.776 18,6.5 C18,6.224 18.224,6 18.5,6 C18.776,6 19,6.224 19,6.5" id="Fill-247"/><path d="M31,6.5 C31,6.776 30.776,7 30.5,7 C30.224,7 30,6.776 30,6.5 C30,6.224 30.224,6 30.5,6 C30.776,6 31,6.224 31,6.5" id="Fill-249"/><path d="M34,6.5 C34,6.776 33.776,7 33.5,7 C33.224,7 33,6.776 33,6.5 C33,6.224 33.224,6 33.5,6 C33.776,6 34,6.224 34,6.5" id="Fill-251"/><path d="M22,6.5 C22,6.776 21.776,7 21.5,7 C21.224,7 21,6.776 21,6.5 C21,6.224 21.224,6 21.5,6 C21.776,6 22,6.224 22,6.5" id="Fill-253"/></g><path d="M14,34.0833 C14,34.0833 17.875,38.3953 22,34.0833" id="mouth" stroke="#3F2C3D" stroke-linecap="round" stroke-width="2"/></g></g></g></svg>